<?xml version="1.0" encoding="utf-8"?>
<!-- Generator: Adobe Illustrator 16.0.4, SVG Export Plug-In . SVG Version: 6.00 Build 0)  -->
<!DOCTYPE svg PUBLIC "-//W3C//DTD SVG 1.1 Basic//EN" "http://www.w3.org/Graphics/SVG/1.1/DTD/svg11-basic.dtd">
<svg version="1.1" baseProfile="basic" xmlns="http://www.w3.org/2000/svg" xmlns:xlink="http://www.w3.org/1999/xlink" x="0px"
	 y="0px" width="1824.182px" height="1163.383px" viewBox="0 0 1824.182 1163.383" xml:space="preserve">
<g id="Ebene_2">
	<rect x="0" fill="#11BECC" width="1824.183" height="1163.383"/>
</g>
<g id="Layer_1">
	<g>
		<polygon opacity="0.1" fill="#1C1B1C" points="337.81,315.084 337.81,1132.143 607.728,1132.143 607.728,1154.27 
			1364.266,1154.27 1364.266,273.831 1287.713,273.831 1287.713,240.711 1165.219,240.711 1165.219,922.047 1012.605,922.047 
			1012.605,464.828 1043.862,464.828 1043.862,332.143 1017.505,332.143 1017.505,313.426 966.041,313.426 966.041,229.214 
			945.396,229.214 919.458,12.297 894.881,229.214 876.09,229.214 876.09,313.426 816.744,313.426 816.744,332.143 804.837,332.143 
			804.837,464.828 830.774,464.828 830.774,472.925 830.933,544.383 830.933,809.764 813.073,809.764 813.073,579.449 
			776.357,579.449 776.357,550.336 633.013,550.336 633.013,579.449 607.728,579.449 607.728,1003.575 498.985,1003.575 
			498.985,446.447 368.554,353.282 368.554,315.084 		"/>
		<g>
			<rect x="619.618" y="596.898" fill="#FFFFFF" width="138.439" height="14.05"/>
			<rect x="619.618" y="625.895" fill="#FFFFFF" width="138.439" height="14.049"/>
			<rect x="619.618" y="654.89" fill="#FFFFFF" width="138.439" height="14.05"/>
			<rect x="619.618" y="683.885" fill="#FFFFFF" width="138.439" height="14.05"/>
			<rect x="619.618" y="712.881" fill="#FFFFFF" width="138.439" height="14.05"/>
			<rect x="619.618" y="741.876" fill="#FFFFFF" width="138.439" height="14.05"/>
			<rect x="619.618" y="770.872" fill="#FFFFFF" width="138.439" height="14.05"/>
			<rect x="619.618" y="799.867" fill="#FFFFFF" width="138.439" height="14.05"/>
			<rect x="619.618" y="828.863" fill="#FFFFFF" width="138.439" height="14.049"/>
			<rect x="619.618" y="857.858" fill="#FFFFFF" width="138.439" height="14.05"/>
			<rect x="619.618" y="886.854" fill="#FFFFFF" width="138.439" height="14.05"/>
			<rect x="619.618" y="915.85" fill="#FFFFFF" width="138.439" height="14.049"/>
			<rect x="619.618" y="944.845" fill="#FFFFFF" width="138.439" height="14.05"/>
			<rect x="619.618" y="973.84" fill="#FFFFFF" width="138.439" height="14.05"/>
			<rect x="619.618" y="1002.836" fill="#FFFFFF" width="138.439" height="14.05"/>
			<rect x="619.618" y="1031.832" fill="#FFFFFF" width="138.439" height="14.049"/>
			<rect x="619.618" y="1060.827" fill="#FFFFFF" width="138.439" height="14.049"/>
			<rect x="619.618" y="1089.822" fill="#FFFFFF" width="138.439" height="14.05"/>
		</g>
		<g>
			<g>
				<rect x="866.937" y="373.396" fill="#FFFFFF" width="10.208" height="74.005"/>
				<rect x="890.755" y="373.396" fill="#FFFFFF" width="10.207" height="74.005"/>
				<rect x="912.871" y="373.396" fill="#FFFFFF" width="10.208" height="74.005"/>
				<rect x="936.688" y="373.396" fill="#FFFFFF" width="10.208" height="74.005"/>
				<rect x="960.081" y="373.396" fill="#FFFFFF" width="10.208" height="74.005"/>
			</g>
			<g>
				<rect x="866.937" y="481.533" fill="#FFFFFF" width="10.208" height="74.004"/>
				<rect x="890.755" y="481.533" fill="#FFFFFF" width="10.207" height="74.004"/>
				<rect x="912.871" y="481.533" fill="#FFFFFF" width="10.208" height="74.004"/>
				<rect x="936.688" y="481.533" fill="#FFFFFF" width="10.208" height="74.004"/>
				<rect x="960.081" y="481.533" fill="#FFFFFF" width="10.208" height="74.004"/>
			</g>
			<g>
				<rect x="866.937" y="589.669" fill="#FFFFFF" width="10.208" height="74.004"/>
				<rect x="890.755" y="589.669" fill="#FFFFFF" width="10.207" height="74.004"/>
				<rect x="912.871" y="589.669" fill="#FFFFFF" width="10.208" height="74.004"/>
				<rect x="936.688" y="589.669" fill="#FFFFFF" width="10.208" height="74.004"/>
				<rect x="960.081" y="589.669" fill="#FFFFFF" width="10.208" height="74.004"/>
			</g>
			<g>
				<rect x="866.937" y="697.805" fill="#FFFFFF" width="10.208" height="74.004"/>
				<rect x="890.755" y="697.805" fill="#FFFFFF" width="10.207" height="74.004"/>
				<rect x="912.871" y="697.805" fill="#FFFFFF" width="10.208" height="74.004"/>
				<rect x="936.688" y="697.805" fill="#FFFFFF" width="10.208" height="74.004"/>
				<rect x="960.081" y="697.805" fill="#FFFFFF" width="10.208" height="74.004"/>
			</g>
			<g>
				<rect x="866.937" y="805.94" fill="#FFFFFF" width="10.208" height="74.004"/>
				<rect x="890.755" y="805.94" fill="#FFFFFF" width="10.207" height="74.004"/>
				<rect x="912.871" y="805.94" fill="#FFFFFF" width="10.208" height="74.004"/>
				<rect x="936.688" y="805.94" fill="#FFFFFF" width="10.208" height="74.004"/>
				<rect x="960.081" y="805.94" fill="#FFFFFF" width="10.208" height="74.004"/>
			</g>
			<g>
				<rect x="866.937" y="914.076" fill="#FFFFFF" width="10.208" height="74.004"/>
				<rect x="890.755" y="914.076" fill="#FFFFFF" width="10.207" height="74.004"/>
				<rect x="912.871" y="914.076" fill="#FFFFFF" width="10.208" height="74.004"/>
				<rect x="936.688" y="914.076" fill="#FFFFFF" width="10.208" height="74.004"/>
				<rect x="960.081" y="914.076" fill="#FFFFFF" width="10.208" height="74.004"/>
			</g>
			<g>
				<rect x="866.937" y="1022.212" fill="#FFFFFF" width="10.208" height="74.005"/>
				<rect x="890.755" y="1022.212" fill="#FFFFFF" width="10.207" height="74.005"/>
				<rect x="912.871" y="1022.212" fill="#FFFFFF" width="10.208" height="74.005"/>
				<rect x="936.688" y="1022.212" fill="#FFFFFF" width="10.208" height="74.005"/>
				<rect x="960.081" y="1022.212" fill="#FFFFFF" width="10.208" height="74.005"/>
			</g>
		</g>
		<rect x="903.089" y="254.309" fill="#FFFFFF" width="4.253" height="47.636"/>
		<rect x="913.296" y="254.309" fill="#FFFFFF" width="4.253" height="47.636"/>
		<rect x="925.205" y="254.309" fill="#FFFFFF" width="4.253" height="47.636"/>
		<rect x="935.413" y="254.309" fill="#FFFFFF" width="4.253" height="47.636"/>
		<g>
			<g>
				<rect x="1281.192" y="314.703" fill="#FFFFFF" width="52.314" height="52.314"/>
				<rect x="1203.36" y="314.703" fill="#FFFFFF" width="52.313" height="52.314"/>
			</g>
			<g>
				<rect x="1281.192" y="434.323" fill="#FFFFFF" width="52.314" height="52.313"/>
				<rect x="1203.36" y="434.323" fill="#FFFFFF" width="52.313" height="52.313"/>
			</g>
			<g>
				<rect x="1281.192" y="553.942" fill="#FFFFFF" width="52.314" height="52.313"/>
				<rect x="1203.36" y="553.942" fill="#FFFFFF" width="52.313" height="52.313"/>
			</g>
			<g>
				<rect x="1281.192" y="673.562" fill="#FFFFFF" width="52.314" height="52.313"/>
				<rect x="1203.36" y="673.562" fill="#FFFFFF" width="52.313" height="52.313"/>
			</g>
			<g>
				<rect x="1281.192" y="793.181" fill="#FFFFFF" width="52.314" height="52.313"/>
				<rect x="1203.36" y="793.181" fill="#FFFFFF" width="52.313" height="52.313"/>
			</g>
			<g>
				<rect x="1281.192" y="912.8" fill="#FFFFFF" width="52.314" height="52.313"/>
				<rect x="1203.36" y="912.8" fill="#FFFFFF" width="52.313" height="52.313"/>
			</g>
			<g>
				<rect x="1281.192" y="1032.42" fill="#FFFFFF" width="52.314" height="52.312"/>
				<rect x="1203.36" y="1032.42" fill="#FFFFFF" width="52.313" height="52.312"/>
			</g>
		</g>
		<g>
			<g>
				<rect x="416.552" y="487.439" fill="#FFFFFF" width="40.579" height="40.578"/>
				<rect x="356.179" y="487.439" fill="#FFFFFF" width="40.579" height="40.578"/>
			</g>
			<g>
				<rect x="416.552" y="580.226" fill="#FFFFFF" width="40.579" height="40.578"/>
				<rect x="356.179" y="580.226" fill="#FFFFFF" width="40.579" height="40.578"/>
			</g>
			<g>
				<rect x="416.552" y="673.012" fill="#FFFFFF" width="40.579" height="40.578"/>
				<rect x="356.179" y="673.012" fill="#FFFFFF" width="40.579" height="40.578"/>
			</g>
			<g>
				<rect x="416.552" y="765.797" fill="#FFFFFF" width="40.579" height="40.578"/>
				<rect x="356.179" y="765.797" fill="#FFFFFF" width="40.579" height="40.578"/>
			</g>
			<g>
				<rect x="416.552" y="858.583" fill="#FFFFFF" width="40.579" height="40.578"/>
				<rect x="356.179" y="858.583" fill="#FFFFFF" width="40.579" height="40.578"/>
			</g>
			<g>
				<rect x="416.552" y="951.369" fill="#FFFFFF" width="40.579" height="40.578"/>
				<rect x="356.179" y="951.369" fill="#FFFFFF" width="40.579" height="40.578"/>
			</g>
			<g>
				<rect x="416.552" y="1044.154" fill="#FFFFFF" width="40.579" height="40.578"/>
				<rect x="356.179" y="1044.154" fill="#FFFFFF" width="40.579" height="40.578"/>
			</g>
		</g>
	</g>
	<g>
		<g>
			<path fill="#249680" d="M1561.442,740.335l-1.806-2.129c-76.79,65.156-111.085,144.635-126.332,199.835
				c-16.522,59.812-14.861,104.857-14.842,105.306l2.789-0.116c-0.018-0.445-1.655-45.136,14.771-104.548
				C1451.172,883.891,1485.229,805.002,1561.442,740.335z"/>
		</g>
		<linearGradient id="SVGID_1_" gradientUnits="userSpaceOnUse" x1="1542.6155" y1="869.915" x2="1604.6132" y2="656.1305">
			<stop  offset="0" style="stop-color:#22DEBD"/>
			<stop  offset="1" style="stop-color:#FFC359"/>
		</linearGradient>
		<path fill="url(#SVGID_1_)" d="M1631.239,682.297c0,0-84.939,19.311-80.493,45.994
			C1554.752,752.334,1597.578,774.16,1631.239,682.297z"/>
		<g>
			<path fill="#249680" d="M1574.867,797.188l0.137-2.788c-34.743-1.698-81.4,15.45-81.867,15.624l0.971,2.617
				C1494.57,812.47,1540.691,795.518,1574.867,797.188z"/>
		</g>
		<g>
			<path fill="#249680" d="M1514.778,787.511c0.064-1.551,1.458-38.267-7.972-63.087l-2.609,0.99
				c9.225,24.281,7.808,61.607,7.792,61.981L1514.778,787.511z"/>
		</g>
		<g>
			<path fill="#249680" d="M1477.228,840.454c0.064-1.551,1.458-38.267-7.972-63.088l-2.609,0.991
				c9.224,24.281,7.807,61.607,7.792,61.982L1477.228,840.454z"/>
		</g>
		<g>
			<path fill="#249680" d="M1517.04,838.191c-25.818,6.31-55.228,28.305-56.468,29.237l1.677,2.231
				c0.299-0.226,30.21-22.553,55.456-28.759L1517.04,838.191z"/>
		</g>
		<linearGradient id="SVGID_2_" gradientUnits="userSpaceOnUse" x1="1564.5837" y1="830.4854" x2="1628.0052" y2="765.3947">
			<stop  offset="0" style="stop-color:#22DEBD"/>
			<stop  offset="1" style="stop-color:#FFC359"/>
		</linearGradient>
		<path fill="url(#SVGID_2_)" d="M1636.472,794.977c0,0-58.996-24.334-67.611-6.484
			C1561.099,804.574,1577.508,835.734,1636.472,794.977z"/>
		<linearGradient id="SVGID_3_" gradientUnits="userSpaceOnUse" x1="1495.1431" y1="773.3311" x2="1504.1282" y2="675.7783">
			<stop  offset="0" style="stop-color:#22DEBD"/>
			<stop  offset="0.6564" style="stop-color:#B3CC7B"/>
			<stop  offset="1" style="stop-color:#FFC359"/>
		</linearGradient>
		<path fill="url(#SVGID_3_)" d="M1512.217,727.599c10.897-10.438-20.605-47.431-20.605-47.431
			C1475.975,732.453,1502.398,737.004,1512.217,727.599z"/>
		<linearGradient id="SVGID_4_" gradientUnits="userSpaceOnUse" x1="1431.458" y1="871.9756" x2="1479.1302" y2="707.589">
			<stop  offset="0" style="stop-color:#22DEBD"/>
			<stop  offset="1" style="stop-color:#FFC359"/>
		</linearGradient>
		<path fill="url(#SVGID_4_)" d="M1474.668,780.542c10.897-10.438-20.605-47.43-20.605-47.43
			C1438.425,785.397,1464.849,789.947,1474.668,780.542z"/>
		<linearGradient id="SVGID_5_" gradientUnits="userSpaceOnUse" x1="1491.5708" y1="871.75" x2="1559.5186" y2="809.842">
			<stop  offset="0" style="stop-color:#22DEBD"/>
			<stop  offset="1" style="stop-color:#FFC359"/>
		</linearGradient>
		<path fill="url(#SVGID_5_)" d="M1562.101,825.587c0,0-48.336-4.945-50.746,9.95
			C1509.183,848.959,1527.924,868.134,1562.101,825.587z"/>
	</g>
	<linearGradient id="SVGID_6_" gradientUnits="userSpaceOnUse" x1="1403.7156" y1="1253.6895" x2="1480.2322" y2="1002.5579">
		<stop  offset="0" style="stop-color:#22AFBD"/>
		<stop  offset="1" style="stop-color:#FFC359"/>
	</linearGradient>
	<path fill="url(#SVGID_6_)" d="M1209.446,1128.629l463.677,3.514c0,0-5.41-23.553-23.995-45.651l-18.155,23.306l11.864-30.168
		c-6.475-6.507-14.241-12.655-23.483-17.707l-5.943,18.475l2.521-20.259c-5.348-2.663-11.147-4.969-17.459-6.808
		c-6.004-1.758-11.618-2.745-16.905-3.103l-5.922,26.628l-3.586-26.655c-10.963,0.769-20.184,4.255-27.827,8.977l2.438,24.734
		l-8.483-20.534c-16.762,13.122-24.016,31.13-24.016,31.13c-3.709-26.71-13.525-47.491-26.557-63.33l-19.098,18.612l5.881-32.229
		c-18.954-16.525-41.699-25.475-62.089-28.934c-0.758-0.137-1.537-0.247-2.336-0.385l-16.987,36.84l-1.947-38.404
		c-9.979-0.192-21.495,0.439-33.852,2.553l1.537,37.032l-9.795-35.439c-24.037,5.271-50.614,16.306-75.162,37.333l6.803,41.645
		l-19.317-28.828C1245.886,1060.244,1220.102,1097.499,1209.446,1128.629z"/>
	<g>
		<path fill="#E3E4E6" d="M1700.816,1141.216c0-12.243-9.925-22.167-22.167-22.167H84.421c-12.243,0-22.167,9.924-22.167,22.167
			s9.924,22.167,22.167,22.167h1594.228C1690.891,1163.383,1700.816,1153.459,1700.816,1141.216z"/>
	</g>
	<path fill="#1FB89A" d="M453.931,1121.581c-15.923,1.517-40.963-50.14-79.625-23.933c-38.663,26.207-47.762-2.606-67.477,8.01
		c-19.714,10.615-21.231,25.021-21.231,25.021l36.396,0.759h144.015C466.009,1131.438,469.854,1120.064,453.931,1121.581z"/>
	<g>
		<g>
			<linearGradient id="SVGID_7_" gradientUnits="userSpaceOnUse" x1="214.1104" y1="1014.3271" x2="311.1263" y2="719.934">
				<stop  offset="0" style="stop-color:#22DEBD"/>
				<stop  offset="1" style="stop-color:#FFC359"/>
			</linearGradient>
			<path fill="url(#SVGID_7_)" d="M311.626,727.848c-28.898-24.644-59.972,9.387-66.896,42.637l16.275,9.387l-17.528-0.664
				c-0.507,6.72,0.104,13.186,2.069,18.878c12.346,35.779,1.636,49.431-27.002,92.027c-8.262,12.288-12.597,25.282-14.587,37.55
				c-4.908,30.261,4.469,56.118,4.469,56.118c3.587,11.013,6.463,39.823,21.356,46.878h0.003c5.337,2.526,12.22,2.257,21.232-2.632
				c34.157-18.526,2.631-79.356,39.397-113.819c19.488-18.266,17.137-36.902,12.271-53.972v-0.003l-7.205-5.556l6.001,1.5
				c-4.15-13.562-8.935-25.997-4.202-36.288C308.348,795.824,349.017,759.738,311.626,727.848z"/>
			<g>
				<linearGradient id="SVGID_8_" gradientUnits="userSpaceOnUse" x1="210.5654" y1="913.0938" x2="299.6104" y2="913.0938">
					<stop  offset="0" style="stop-color:#FFFFFF"/>
					<stop  offset="1" style="stop-color:#DCEFFE"/>
				</linearGradient>
				<path fill="url(#SVGID_8_)" d="M298.89,758.082L298.89,758.082c-0.797-0.592-1.921-0.422-2.51,0.376
					c-34.083,46.235-32.413,63.203-29.12,96.667c0.188,1.908,0.381,3.873,0.573,5.9c3.536,37.291-23.103,73.855-39.02,95.701
					c-8.9,12.216-15.038,29.161-17.284,47.715c-2.478,20.471-0.159,42.146,6.704,62.802c0.312,0.941,1.34,1.44,2.278,1.117h0
					c0.93-0.321,1.42-1.331,1.11-2.265c-14.72-44.307-5.635-85.688,10.082-107.263c16.215-22.256,43.354-59.505,39.69-98.145
					c-0.193-2.032-0.386-4.001-0.575-5.914c-3.303-33.569-4.83-49.082,28.441-94.196C299.846,759.785,299.679,758.67,298.89,758.082
					z"/>
			</g>
			<g>
				<linearGradient id="SVGID_9_" gradientUnits="userSpaceOnUse" x1="199.7637" y1="988.0859" x2="90.2019" y2="719.6184">
					<stop  offset="0" style="stop-color:#22BBBD"/>
					<stop  offset="0.9266" style="stop-color:#EFC560"/>
					<stop  offset="1" style="stop-color:#FFC359"/>
				</linearGradient>
				<path fill="url(#SVGID_9_)" d="M147.661,939.144c20.633,4.801,26.201,23.847,30.462,42.598
					c2.735,12.04,4.934,23.96,10.242,31.906c5.48,8.209,16.945,14.048,28.989,16.178c4.15,0.738,8.362,1.034,12.428,0.833h0.003
					c13.345-0.65,25.047-6.632,27.275-19.879c9.917-58.971-26.25-69.479-53.103-83.117c-10.083-5.119-18.851-10.678-23.378-19.407
					c-16.584-31.984-38.812-58.886-38.841-103.489c-0.003-6.043-1.109-11.748-3.064-17.011l-11.995,3.499l9.998-8.146
					c-14.86-30.333-58.242-43.438-73.261-18.003c-18.237,30.879,23.369,48.917,27.164,92.77c0.137,1.595,0.296,3.171,0.475,4.727
					l18.711,0.858l-18.146,3.52C97.195,905.803,116.177,931.819,147.661,939.144z"/>
				<g>
					<linearGradient id="SVGID_10_" gradientUnits="userSpaceOnUse" x1="89.3677" y1="922.0625" x2="227.9114" y2="922.0625">
						<stop  offset="0" style="stop-color:#FFFFFF"/>
						<stop  offset="1" style="stop-color:#DCEFFE"/>
					</linearGradient>
					<path fill="url(#SVGID_10_)" d="M222.607,1062.995L222.607,1062.995c0.972,0.194,1.921-0.438,2.107-1.411
						c14.908-78.1-25.377-116.61-57.793-147.6c-10.536-10.072-20.487-19.585-27.237-29.307
						c-11.467-16.515-14.109-32.953-16.665-48.85c-3.367-20.949-6.552-40.762-30.988-54.506c-0.874-0.491-1.983-0.163-2.454,0.723
						l0,0.001c-0.456,0.858-0.141,1.922,0.707,2.397c22.925,12.891,25.84,31.025,29.205,51.953
						c2.496,15.533,5.326,33.139,17.258,50.321c6.956,10.018,17.034,19.652,27.703,29.852
						c31.785,30.386,71.283,68.145,56.754,144.329C221.019,1061.866,221.642,1062.802,222.607,1062.995z"/>
				</g>
			</g>
			<g>
				<linearGradient id="SVGID_11_" gradientUnits="userSpaceOnUse" x1="230.2104" y1="1063.8193" x2="-3.9645" y2="861.425">
					<stop  offset="0" style="stop-color:#22DEBD"/>
					<stop  offset="0.3897" style="stop-color:#78D396"/>
					<stop  offset="1" style="stop-color:#FFC359"/>
				</linearGradient>
				<path fill="url(#SVGID_11_)" d="M124.425,1000.092c25.502-2.196,31.321,31.737,45.44,42.867
					c13.072,10.304,45.33,4.735,47.489-13.134c0.176-1.428,0.156-2.931-0.078-4.511c-4.879-32.743-21.766-40.354-39.153-43.573
					c-14.399-2.667-29.142-2.326-37.7-10.753c-1.161-1.142-2.329-2.267-3.509-3.379l-4.381,3.831l2.498-5.594
					c-17.469-16.211-36.122-30.163-45.339-58.431c-10.177-31.205-58.099-35.68-63.83-9.924c-0.79,3.559-0.839,6.684-0.299,9.511
					l19.154,5.894l-15.96,1.772c8.122,12.347,28.076,19.954,37.228,41.554c2.556,6.029,5.425,11.504,8.586,16.382l10.801-5.718
					l-9.253,8.027C88.439,992.653,104.91,1001.773,124.425,1000.092z"/>
				<g>
					<linearGradient id="SVGID_12_" gradientUnits="userSpaceOnUse" x1="47.9932" y1="985.8145" x2="206.6312" y2="985.8145">
						<stop  offset="0" style="stop-color:#FFFFFF"/>
						<stop  offset="1" style="stop-color:#DCEFFE"/>
					</linearGradient>
					<path fill="url(#SVGID_12_)" d="M132.378,977.678c-9.642-4.639-18.75-9.019-25.648-14.256
						c-11.697-8.88-17.263-19.73-22.645-30.225c-7.124-13.891-13.864-27.031-33.946-31.235c-0.985-0.206-1.945,0.452-2.119,1.443
						v0.001c-0.168,0.955,0.458,1.862,1.407,2.062c18.396,3.86,24.472,15.707,31.475,29.361
						c5.306,10.345,11.319,22.07,23.665,31.442c7.186,5.455,16.451,9.912,26.26,14.631c28.974,13.938,64.961,31.248,72.242,87.249
						c0.126,0.969,1.011,1.654,1.981,1.54h0.001c0.992-0.117,1.693-1.024,1.564-2.015
						C199.093,1009.771,162.135,991.992,132.378,977.678z"/>
				</g>
			</g>
			<path fill="#E2C054" d="M174.011,1051.776c-2.256,0-4.084,1.828-4.084,4.085v34.131c0,27.753,22.498,50.251,50.25,50.251l0,0
				c27.752,0,50.25-22.498,50.25-50.251v-34.131c0-2.257-1.829-4.085-4.084-4.085H174.011z"/>
			<path fill="#D1944B" d="M169.926,1061.173v28.819c0,27.753,22.497,50.251,50.25,50.251c27.753,0,50.25-22.498,50.25-50.251
				v-7.969c-2.069,25.852-23.704,46.186-50.088,46.186c-27.753,0-50.25-22.497-50.25-50.251v-18.519
				C169.981,1060.002,169.926,1060.58,169.926,1061.173z"/>
		</g>
		<g>
			<g>
				<linearGradient id="SVGID_13_" gradientUnits="userSpaceOnUse" x1="281.9658" y1="783.0488" x2="302.2026" y2="783.0488">
					<stop  offset="0" style="stop-color:#FFFFFF"/>
					<stop  offset="1" style="stop-color:#DCEFFE"/>
				</linearGradient>
				<polygon fill="url(#SVGID_13_)" points="282.015,784.343 302.203,782.219 302.153,781.754 281.966,783.879 				"/>
			</g>
			<g>
				<linearGradient id="SVGID_14_" gradientUnits="userSpaceOnUse" x1="268.2197" y1="789.0254" x2="274.2446" y2="789.0254">
					<stop  offset="0" style="stop-color:#FFFFFF"/>
					<stop  offset="1" style="stop-color:#DCEFFE"/>
				</linearGradient>
				<polygon fill="url(#SVGID_14_)" points="273.798,798.521 274.245,798.389 268.667,779.529 268.22,779.662 				"/>
			</g>
			<g>
				<linearGradient id="SVGID_15_" gradientUnits="userSpaceOnUse" x1="267.834" y1="818.377" x2="284.4585" y2="818.377">
					<stop  offset="0" style="stop-color:#FFFFFF"/>
					<stop  offset="1" style="stop-color:#DCEFFE"/>
				</linearGradient>
				<polygon fill="url(#SVGID_15_)" points="267.989,821.519 284.458,815.675 284.303,815.236 267.834,821.08 				"/>
			</g>
			<g>
				<linearGradient id="SVGID_16_" gradientUnits="userSpaceOnUse" x1="258.7046" y1="843.6123" x2="268.3525" y2="843.6123">
					<stop  offset="0" style="stop-color:#FFFFFF"/>
					<stop  offset="1" style="stop-color:#DCEFFE"/>
				</linearGradient>
				<polygon fill="url(#SVGID_16_)" points="268.002,849.079 268.353,848.771 259.055,838.146 258.705,838.453 				"/>
			</g>
			<g>
				<linearGradient id="SVGID_17_" gradientUnits="userSpaceOnUse" x1="269.6079" y1="862.4727" x2="283.481" y2="862.4727">
					<stop  offset="0" style="stop-color:#FFFFFF"/>
					<stop  offset="1" style="stop-color:#DCEFFE"/>
				</linearGradient>
				<polygon fill="url(#SVGID_17_)" points="269.934,869.279 283.481,855.998 283.155,855.665 269.608,868.947 				"/>
			</g>
			<g>
				<linearGradient id="SVGID_18_" gradientUnits="userSpaceOnUse" x1="256.0356" y1="884.7861" x2="266.5054" y2="884.7861">
					<stop  offset="0" style="stop-color:#FFFFFF"/>
					<stop  offset="1" style="stop-color:#DCEFFE"/>
				</linearGradient>
				<polygon fill="url(#SVGID_18_)" points="266.13,891.83 266.505,891.555 256.412,877.742 256.036,878.017 				"/>
			</g>
			<g>
				<linearGradient id="SVGID_19_" gradientUnits="userSpaceOnUse" x1="260.6553" y1="906.3008" x2="277.293" y2="906.3008">
					<stop  offset="0" style="stop-color:#FFFFFF"/>
					<stop  offset="1" style="stop-color:#DCEFFE"/>
				</linearGradient>
				<polygon fill="url(#SVGID_19_)" points="260.824,909.706 277.293,903.331 277.125,902.896 260.655,909.271 				"/>
			</g>
			<g>
				<linearGradient id="SVGID_20_" gradientUnits="userSpaceOnUse" x1="239.8135" y1="920.3799" x2="249.2588" y2="920.3799">
					<stop  offset="0" style="stop-color:#FFFFFF"/>
					<stop  offset="1" style="stop-color:#DCEFFE"/>
				</linearGradient>
				<polygon fill="url(#SVGID_20_)" points="248.845,929.252 249.259,929.039 240.228,911.508 239.813,911.721 				"/>
			</g>
			<g>
				<linearGradient id="SVGID_21_" gradientUnits="userSpaceOnUse" x1="111.0459" y1="794.9141" x2="113.2808" y2="794.9141">
					<stop  offset="0" style="stop-color:#FFFFFF"/>
					<stop  offset="1" style="stop-color:#DCEFFE"/>
				</linearGradient>
				<polygon fill="url(#SVGID_21_)" points="112.817,804.145 113.281,804.1 111.51,785.684 111.046,785.727 				"/>
			</g>
			<g>
				<linearGradient id="SVGID_22_" gradientUnits="userSpaceOnUse" x1="102.9917" y1="823.6016" x2="120.272" y2="823.6016">
					<stop  offset="0" style="stop-color:#FFFFFF"/>
					<stop  offset="1" style="stop-color:#DCEFFE"/>
				</linearGradient>
				<polygon fill="url(#SVGID_22_)" points="119.993,830.163 120.272,829.79 103.271,817.04 102.992,817.413 				"/>
			</g>
			<g>
				<linearGradient id="SVGID_23_" gradientUnits="userSpaceOnUse" x1="123.8037" y1="837.5918" x2="130.9814" y2="837.5918">
					<stop  offset="0" style="stop-color:#FFFFFF"/>
					<stop  offset="1" style="stop-color:#DCEFFE"/>
				</linearGradient>
				<polygon fill="url(#SVGID_23_)" points="124.252,849.521 130.981,825.791 130.533,825.663 123.804,849.393 				"/>
			</g>
			<g>
				<linearGradient id="SVGID_24_" gradientUnits="userSpaceOnUse" x1="114.7456" y1="872.6543" x2="130.8311" y2="872.6543">
					<stop  offset="0" style="stop-color:#FFFFFF"/>
					<stop  offset="1" style="stop-color:#DCEFFE"/>
				</linearGradient>
				<polygon fill="url(#SVGID_24_)" points="130.684,875.532 130.831,875.09 114.893,869.777 114.746,870.22 				"/>
			</g>
			<g>
				<linearGradient id="SVGID_25_" gradientUnits="userSpaceOnUse" x1="139.4565" y1="877.3379" x2="143.0273" y2="877.3379">
					<stop  offset="0" style="stop-color:#FFFFFF"/>
					<stop  offset="1" style="stop-color:#DCEFFE"/>
				</linearGradient>
				<polygon fill="url(#SVGID_25_)" points="139.913,884.726 143.027,870.047 142.571,869.95 139.457,884.629 				"/>
			</g>
			<g>
				<linearGradient id="SVGID_26_" gradientUnits="userSpaceOnUse" x1="129.6533" y1="898.5098" x2="151.3403" y2="898.5098">
					<stop  offset="0" style="stop-color:#FFFFFF"/>
					<stop  offset="1" style="stop-color:#DCEFFE"/>
				</linearGradient>
				<polygon fill="url(#SVGID_26_)" points="151.258,900.687 151.34,900.229 129.736,896.332 129.653,896.791 				"/>
			</g>
			<g>
				<linearGradient id="SVGID_27_" gradientUnits="userSpaceOnUse" x1="160.9834" y1="903.291" x2="161.8032" y2="903.291">
					<stop  offset="0" style="stop-color:#FFFFFF"/>
					<stop  offset="1" style="stop-color:#DCEFFE"/>
				</linearGradient>
				<polygon fill="url(#SVGID_27_)" points="161.449,910.734 161.803,895.859 161.338,895.848 160.983,910.724 				"/>
			</g>
			<g>
				<linearGradient id="SVGID_28_" gradientUnits="userSpaceOnUse" x1="158.0181" y1="922.0625" x2="173.9771" y2="922.0625">
					<stop  offset="0" style="stop-color:#FFFFFF"/>
					<stop  offset="1" style="stop-color:#DCEFFE"/>
				</linearGradient>
				<polygon fill="url(#SVGID_28_)" points="158.018,921.94 173.957,922.649 173.977,922.184 158.039,921.475 				"/>
			</g>
			<g>
				<linearGradient id="SVGID_29_" gradientUnits="userSpaceOnUse" x1="182.5923" y1="927.375" x2="185.5293" y2="927.375">
					<stop  offset="0" style="stop-color:#FFFFFF"/>
					<stop  offset="1" style="stop-color:#DCEFFE"/>
				</linearGradient>
				<polygon fill="url(#SVGID_29_)" points="185.072,933.795 185.529,933.705 183.05,920.955 182.592,921.045 				"/>
			</g>
			<g>
				<linearGradient id="SVGID_30_" gradientUnits="userSpaceOnUse" x1="179.2549" y1="946.6777" x2="196.3037" y2="946.6777">
					<stop  offset="0" style="stop-color:#FFFFFF"/>
					<stop  offset="1" style="stop-color:#DCEFFE"/>
				</linearGradient>
				<polygon fill="url(#SVGID_30_)" points="196.255,947.795 196.304,947.331 179.303,945.561 179.255,946.024 				"/>
			</g>
			<g>
				<linearGradient id="SVGID_31_" gradientUnits="userSpaceOnUse" x1="207.7354" y1="955.3545" x2="209.6162" y2="955.3545">
					<stop  offset="0" style="stop-color:#FFFFFF"/>
					<stop  offset="1" style="stop-color:#DCEFFE"/>
				</linearGradient>
				<polygon fill="url(#SVGID_31_)" points="208.2,963.167 209.616,947.584 209.152,947.542 207.735,963.125 				"/>
			</g>
			<g>
				<linearGradient id="SVGID_32_" gradientUnits="userSpaceOnUse" x1="197.6304" y1="980.501" x2="216.8877" y2="980.501">
					<stop  offset="0" style="stop-color:#FFFFFF"/>
					<stop  offset="1" style="stop-color:#DCEFFE"/>
				</linearGradient>
				<polygon fill="url(#SVGID_32_)" points="216.756,983.557 216.888,983.111 197.762,977.445 197.63,977.891 				"/>
			</g>
			<g>
				<linearGradient id="SVGID_33_" gradientUnits="userSpaceOnUse" x1="221.9155" y1="989.002" x2="229.0825" y2="989.002">
					<stop  offset="0" style="stop-color:#FFFFFF"/>
					<stop  offset="1" style="stop-color:#DCEFFE"/>
				</linearGradient>
				<polygon fill="url(#SVGID_33_)" points="222.353,998.29 229.083,979.873 228.645,979.713 221.916,998.13 				"/>
			</g>
			<g>
				<linearGradient id="SVGID_34_" gradientUnits="userSpaceOnUse" x1="60.2275" y1="902.582" x2="64.3984" y2="902.582">
					<stop  offset="0" style="stop-color:#FFFFFF"/>
					<stop  offset="1" style="stop-color:#DCEFFE"/>
				</linearGradient>
				<polygon fill="url(#SVGID_34_)" points="63.946,910.076 64.398,909.964 60.68,895.088 60.228,895.201 				"/>
			</g>
			<g>
				<linearGradient id="SVGID_35_" gradientUnits="userSpaceOnUse" x1="60.6689" y1="924.6299" x2="77.5044" y2="924.6299">
					<stop  offset="0" style="stop-color:#FFFFFF"/>
					<stop  offset="1" style="stop-color:#DCEFFE"/>
				</linearGradient>
				<polygon fill="url(#SVGID_35_)" points="77.403,926.717 77.504,926.263 60.77,922.543 60.669,922.998 				"/>
			</g>
			<g>
				<linearGradient id="SVGID_36_" gradientUnits="userSpaceOnUse" x1="86.7837" y1="934.7246" x2="88.0464" y2="934.7246">
					<stop  offset="0" style="stop-color:#FFFFFF"/>
					<stop  offset="1" style="stop-color:#DCEFFE"/>
				</linearGradient>
				<polygon fill="url(#SVGID_36_)" points="87.581,944.297 88.046,944.276 87.25,925.151 86.784,925.172 				"/>
			</g>
			<g>
				<linearGradient id="SVGID_37_" gradientUnits="userSpaceOnUse" x1="79.5449" y1="957.9668" x2="99.27" y2="957.9668">
					<stop  offset="0" style="stop-color:#FFFFFF"/>
					<stop  offset="1" style="stop-color:#DCEFFE"/>
				</linearGradient>
				<polygon fill="url(#SVGID_37_)" points="99.202,959.658 99.27,959.197 79.613,956.275 79.545,956.736 				"/>
			</g>
			<g>
				<linearGradient id="SVGID_38_" gradientUnits="userSpaceOnUse" x1="110.1675" y1="961.4199" x2="115.1328" y2="961.4199">
					<stop  offset="0" style="stop-color:#FFFFFF"/>
					<stop  offset="1" style="stop-color:#DCEFFE"/>
				</linearGradient>
				<polygon fill="url(#SVGID_38_)" points="114.683,969.848 115.133,969.727 110.617,952.992 110.167,953.113 				"/>
			</g>
			<g>
				<linearGradient id="SVGID_39_" gradientUnits="userSpaceOnUse" x1="115.6978" y1="980.1465" x2="134.04" y2="980.1465">
					<stop  offset="0" style="stop-color:#FFFFFF"/>
					<stop  offset="1" style="stop-color:#DCEFFE"/>
				</linearGradient>
				<polygon fill="url(#SVGID_39_)" points="115.712,980.646 134.04,980.114 134.026,979.648 115.698,980.18 				"/>
			</g>
			<g>
				<linearGradient id="SVGID_40_" gradientUnits="userSpaceOnUse" x1="144.1821" y1="982.5371" x2="149.1191" y2="982.5371">
					<stop  offset="0" style="stop-color:#FFFFFF"/>
					<stop  offset="1" style="stop-color:#DCEFFE"/>
				</linearGradient>
				<polygon fill="url(#SVGID_40_)" points="148.698,987.418 149.119,987.22 144.604,977.657 144.182,977.855 				"/>
			</g>
			<g>
				<linearGradient id="SVGID_41_" gradientUnits="userSpaceOnUse" x1="145.9663" y1="998.3418" x2="167.2578" y2="998.3418">
					<stop  offset="0" style="stop-color:#FFFFFF"/>
					<stop  offset="1" style="stop-color:#DCEFFE"/>
				</linearGradient>
				<polygon fill="url(#SVGID_41_)" points="145.966,997.645 167.217,999.504 167.258,999.041 146.007,997.181 				"/>
			</g>
			<g>
				<linearGradient id="SVGID_42_" gradientUnits="userSpaceOnUse" x1="177.3701" y1="1003.3896" x2="182.605" y2="1003.3896">
					<stop  offset="0" style="stop-color:#FFFFFF"/>
					<stop  offset="1" style="stop-color:#DCEFFE"/>
				</linearGradient>
				<polygon fill="url(#SVGID_42_)" points="182.151,1013.934 182.605,1013.83 177.824,992.846 177.37,992.949 				"/>
			</g>
			<g>
				<linearGradient id="SVGID_43_" gradientUnits="userSpaceOnUse" x1="170.6304" y1="1024.1094" x2="191.7354" y2="1024.1094">
					<stop  offset="0" style="stop-color:#FFFFFF"/>
					<stop  offset="1" style="stop-color:#DCEFFE"/>
				</linearGradient>
				<polygon fill="url(#SVGID_43_)" points="191.615,1027.123 191.735,1026.674 170.75,1021.096 170.63,1021.545 				"/>
			</g>
		</g>
	</g>
	<g>
		<path fill="#6C63FF" d="M1760.737,347.84c0-16.777-13.649-30.427-30.426-30.427s-30.426,13.649-30.426,30.427
			c0,16.776,13.649,30.426,30.426,30.426S1760.737,364.616,1760.737,347.84z M1704.543,347.84c0-14.209,11.559-25.769,25.768-25.769
			s25.768,11.56,25.768,25.769c0,14.208-11.559,25.768-25.768,25.768S1704.543,362.048,1704.543,347.84z"/>
	</g>
	<g>
		<path fill="#FDE772" d="M837.579,885.773c-6.087,0.946-12.265,1.744-18.362,2.372l0.477,4.635
			c6.177-0.636,12.435-1.444,18.601-2.403L837.579,885.773z"/>
		<path fill="#FDE772" d="M869.33,879.37c-5.971,1.483-12.051,2.832-18.074,4.007l0.892,4.572c6.1-1.19,12.259-2.556,18.306-4.059
			L869.33,879.37z"/>
		<path fill="#FDE772" d="M805.374,889.296c-6.164,0.39-12.389,0.616-18.5,0.673l0.043,4.658c6.194-0.059,12.502-0.287,18.75-0.682
			L805.374,889.296z"/>
		<path fill="#FDE772" d="M986.412,825.924c-4.934,3.566-10.084,7.057-15.307,10.371l2.496,3.934
			c5.302-3.365,10.531-6.907,15.541-10.531L986.412,825.924z"/>
		<path fill="#FDE772" d="M772.987,889.812c-6.174-0.196-12.388-0.57-18.47-1.111l-0.413,4.64
			c6.169,0.549,12.473,0.928,18.735,1.128L772.987,889.812z"/>
		<path fill="#FDE772" d="M900.374,870.167c-5.787,2.001-11.722,3.886-17.64,5.6l1.296,4.475c5.995-1.735,12.006-3.645,17.867-5.673
			L900.374,870.167z"/>
		<path fill="#FDE772" d="M959.23,843.47c-5.278,3.035-10.756,5.982-16.282,8.76l2.093,4.162c5.603-2.816,11.158-5.805,16.511-8.884
			L959.23,843.47z"/>
		<path fill="#FDE772" d="M930.441,858.199c-5.578,2.524-11.314,4.939-17.051,7.177l1.693,4.34
			c5.812-2.268,11.625-4.715,17.278-7.273L930.441,858.199z"/>
		<path fill="#FDE772" d="M660.983,864.598l-1.936,4.236c5.641,2.578,11.481,5,17.357,7.198l1.632-4.363
			C672.262,869.509,666.524,867.13,660.983,864.598z"/>
		<path fill="#FDE772" d="M740.72,887.168c-6.125-0.816-12.265-1.825-18.248-2.998l-0.896,4.57
			c6.075,1.191,12.308,2.216,18.528,3.047L740.72,887.168z"/>
		<path fill="#FDE772" d="M559.422,785.361c3.535,5.171,7.302,10.252,11.196,15.098l3.631-2.918
			c-3.819-4.753-7.514-9.735-10.981-14.81L559.422,785.361z"/>
		<path fill="#FDE772" d="M606.469,830.399l-2.986,3.576c4.779,3.991,9.79,7.853,14.894,11.476l2.697-3.799
			C616.068,838.101,611.154,834.313,606.469,830.399z"/>
		<path fill="#FDE772" d="M596.127,821.223c-4.455-4.197-8.796-8.625-12.904-13.162l-3.453,3.125
			c4.19,4.629,8.619,9.146,13.163,13.427L596.127,821.223z"/>
		<path fill="#FDE772" d="M648.56,858.503c-5.448-2.862-10.829-5.953-15.994-9.186l-2.472,3.948
			c5.264,3.295,10.748,6.445,16.299,9.361L648.56,858.503z"/>
		<path fill="#FDE772" d="M708.926,881.181c-6-1.475-11.985-3.154-17.791-4.992l-1.406,4.441c5.902,1.868,11.987,3.576,18.085,5.075
			L708.926,881.181z"/>
		<path fill="#FDE772" d="M1011.497,805.539c-4.477,4.093-9.203,8.13-14.047,11.996l2.907,3.641
			c4.924-3.932,9.73-8.036,14.284-12.199L1011.497,805.539z"/>
		<path fill="#FDE772" d="M440.856,557.181c4.532,3.906,8.993,8.183,13.259,12.711l3.391-3.193
			c-4.376-4.646-8.955-9.035-13.608-13.046L440.856,557.181z"/>
		<path fill="#FDE772" d="M402.259,532.779l1.847-4.276c-5.761-2.489-11.753-4.63-17.808-6.362l-1.282,4.478
			C390.879,528.296,396.681,530.369,402.259,532.779z"/>
		<path fill="#FDE772" d="M430.064,548.645l2.729-3.775c-5.144-3.719-10.511-7.124-15.951-10.123l-2.249,4.08
			C419.868,541.733,425.073,545.037,430.064,548.645z"/>
		<path fill="#FDE772" d="M371.637,523.478l0.849-4.58c-6.108-1.132-12.42-1.907-18.76-2.303l-0.29,4.649
			C359.589,521.628,365.713,522.38,371.637,523.478z"/>
		<path fill="#FDE772" d="M474.264,594.999l3.837-2.642c-3.623-5.262-7.418-10.324-11.282-15.045l-3.604,2.949
			C466.996,584.885,470.714,589.843,474.264,594.999z"/>
		<path fill="#FDE772" d="M289.829,529.076c5.938-1.764,11.954-3.265,17.878-4.461l-0.922-4.565
			c-6.061,1.223-12.212,2.759-18.283,4.562L289.829,529.076z"/>
		<path fill="#FDE772" d="M259.706,540.573c5.383-2.558,11.102-4.958,16.998-7.131l-1.611-4.371
			c-6.027,2.223-11.877,4.677-17.386,7.295L259.706,540.573z"/>
		<path fill="#FDE772" d="M321.331,522.365c6.154-0.784,12.322-1.252,18.333-1.389l-0.106-4.656
			c-6.173,0.139-12.504,0.619-18.817,1.426L321.331,522.365z"/>
		<path fill="#FDE772" d="M490.879,622.678l4.125-2.164c-2.958-5.637-6.066-11.132-9.24-16.333l-3.977,2.425
			C484.909,611.723,487.968,617.13,490.879,622.678z"/>
		<path fill="#FDE772" d="M1033.917,782.306c-3.92,4.629-8.108,9.212-12.448,13.624l3.321,3.266
			c4.42-4.492,8.688-9.162,12.682-13.879L1033.917,782.306z"/>
		<path fill="#FDE772" d="M551.799,773.504l3.987-2.409c-3.14-5.196-6.153-10.623-8.957-16.127l-4.151,2.114
			C545.534,762.686,548.602,768.211,551.799,773.504z"/>
		<path fill="#FDE772" d="M1067.947,727.821c-2.388,5.581-5.083,11.156-8.008,16.57l4.098,2.215
			c2.993-5.538,5.749-11.241,8.192-16.952L1067.947,727.821z"/>
		<path fill="#FDE772" d="M1052.983,756.316c-3.219,5.127-6.731,10.233-10.44,15.178l3.727,2.795
			c3.786-5.047,7.372-10.261,10.659-15.496L1052.983,756.316z"/>
		<path fill="#FDE772" d="M536.617,744.368l4.255-1.896c-2.471-5.544-4.809-11.299-6.951-17.107l-4.371,1.613
			C531.728,732.88,534.105,738.73,536.617,744.368z"/>
		<path fill="#FDE772" d="M509.539,664.966c2.09,5.638,4.136,11.524,6.079,17.499l4.43-1.44c-1.963-6.034-4.029-11.982-6.142-17.678
			L509.539,664.966z"/>
		<path fill="#FDE772" d="M524.991,713.665l4.441-1.407c-1.063-3.353-2.088-6.796-3.048-10.233c-0.718-2.566-1.445-5.1-2.183-7.598
			l-4.467,1.319c0.731,2.477,1.453,4.987,2.164,7.532C522.871,706.767,523.912,710.262,524.991,713.665z"/>
		<path fill="#FDE772" d="M504.494,652.028l4.31-1.767c-2.411-5.879-4.947-11.649-7.54-17.153l-4.214,1.985
			C499.608,640.525,502.112,646.224,504.494,652.028z"/>
	</g>
	<g>
		<path fill="#FDE772" d="M206.245,550.245c0,16.777,13.649,30.427,30.426,30.427c16.777,0,30.426-13.649,30.426-30.427
			c0-16.776-13.649-30.426-30.426-30.426C219.894,519.819,206.245,533.469,206.245,550.245z M262.438,550.245
			c0,14.209-11.56,25.769-25.768,25.769c-14.208,0-25.768-11.56-25.768-25.769c0-14.208,11.56-25.768,25.768-25.768
			C250.879,524.478,262.438,536.037,262.438,550.245z"/>
	</g>
	<g>
		<path fill="#6C63FF" d="M1361.835,548.539c-2.486,5.69-5.218,11.246-8.122,16.517l4.08,2.248
			c2.972-5.394,5.768-11.079,8.311-16.899L1361.835,548.539z"/>
		<path fill="#6C63FF" d="M1378.127,310.207l4.604,0.709c0.947-6.159,2.219-12.2,3.779-17.956l-4.496-1.219
			C1380.409,297.665,1379.101,303.877,1378.127,310.207z"/>
		<path fill="#6C63FF" d="M1380.448,505.713c1.32-5.994,2.471-12.205,3.422-18.459l-4.605-0.7
			c-0.935,6.154-2.068,12.263-3.366,18.156L1380.448,505.713z"/>
		<path fill="#6C63FF" d="M1386.5,407.779c-0.433-6.113-1.009-12.387-1.711-18.646l-4.629,0.52
			c0.696,6.197,1.266,12.406,1.694,18.456L1386.5,407.779z"/>
		<path fill="#6C63FF" d="M1398.256,263.219l-4.101-2.209c-2.941,5.457-5.568,11.257-7.805,17.235l4.363,1.632
			C1392.877,274.096,1395.415,268.492,1398.256,263.219z"/>
		<path fill="#6C63FF" d="M1387.541,436.595c0-4.854-0.094-9.831-0.28-14.788l-4.655,0.175c0.183,4.9,0.277,9.817,0.277,14.613
			c0,1.307-0.007,2.607-0.021,3.902l4.658,0.049C1387.534,439.235,1387.541,437.918,1387.541,436.595z"/>
		<path fill="#6C63FF" d="M1387.104,454.601l-4.653-0.229c-0.306,6.222-0.784,12.425-1.419,18.437l4.633,0.489
			C1386.309,467.199,1386.793,460.908,1387.104,454.601z"/>
		<path fill="#6C63FF" d="M1346.618,576.879c-3.384,5.186-7.031,10.174-10.839,14.827l3.605,2.95
			c3.914-4.782,7.66-9.906,11.135-15.232L1346.618,576.879z"/>
		<path fill="#6C63FF" d="M1195.83,623.757l-2.992,3.57c4.885,4.095,10.336,7.55,16.204,10.27l1.959-4.227
			C1205.505,630.823,1200.401,627.589,1195.83,623.757z"/>
		<path fill="#6C63FF" d="M1223.741,637.885l-1.149,4.514c6.055,1.541,12.425,2.411,18.934,2.586l0.125-4.656
			C1235.487,640.162,1229.461,639.341,1223.741,637.885z"/>
		<path fill="#6C63FF" d="M1177.018,598.736l-4.238,1.935c2.712,5.942,6.073,11.44,9.99,16.341l3.638-2.91
			C1182.73,609.501,1179.571,604.331,1177.018,598.736z"/>
		<path fill="#6C63FF" d="M1273.02,635.812c-5.904,1.831-11.885,3.126-17.776,3.851l0.569,4.624
			c6.165-0.759,12.419-2.112,18.586-4.025L1273.02,635.812z"/>
		<path fill="#6C63FF" d="M1301.869,622.255c-5.201,3.333-10.604,6.263-16.056,8.711l1.908,4.25
			c5.661-2.542,11.267-5.583,16.661-9.038L1301.869,622.255z"/>
		<path fill="#6C63FF" d="M1326.612,601.969c-4.319,4.424-8.888,8.561-13.583,12.295l2.899,3.646
			c4.848-3.855,9.563-8.125,14.018-12.688L1326.612,601.969z"/>
		<path fill="#6C63FF" d="M1376.459,357.158c0.417,6.075,1.072,12.364,1.947,18.689l4.615-0.639c-0.86-6.22-1.504-12.4-1.914-18.369
			L1376.459,357.158z"/>
		<path fill="#6C63FF" d="M1640.433,224.116l-2.486,3.939c5.189,3.275,10.283,6.805,15.141,10.488l2.815-3.712
			C1650.939,231.068,1645.734,227.463,1640.433,224.116z"/>
		<path fill="#6C63FF" d="M1677.187,259.911l3.351-3.235c-4.328-4.483-8.928-8.841-13.671-12.951l-3.051,3.52
			C1668.455,251.266,1672.954,255.527,1677.187,259.911z"/>
		<path fill="#6C63FF" d="M1611.386,208.651l-1.882,4.262c5.604,2.474,11.165,5.212,16.528,8.14l2.232-4.089
			C1622.787,213.975,1617.108,211.178,1611.386,208.651z"/>
		<path fill="#6C63FF" d="M1709.146,293.967l-3.996,2.393c3.14,5.243,6.073,10.696,8.719,16.21l4.2-2.014
			C1715.362,304.912,1712.359,299.331,1709.146,293.967z"/>
		<polygon fill="#6C63FF" points="1723.74,323.494 1719.412,325.218 1719.613,325.724 1723.944,324.01 		"/>
		<path fill="#6C63FF" d="M1690.003,267.162l-3.562,3.003c3.949,4.686,7.72,9.6,11.209,14.604l3.821-2.664
			C1697.902,276.984,1694.043,271.957,1690.003,267.162z"/>
		<path fill="#6C63FF" d="M1580.386,197.608l-1.235,4.491c5.886,1.619,11.787,3.513,17.539,5.631l1.609-4.371
			C1592.426,201.196,1586.399,199.261,1580.386,197.608z"/>
		<path fill="#6C63FF" d="M1548.06,191.311l-0.535,4.627c6.039,0.698,12.159,1.684,18.188,2.929l0.942-4.562
			C1560.491,193.031,1554.235,192.023,1548.06,191.311z"/>
		<path fill="#6C63FF" d="M1441.463,217.023l-2.48-3.943c-5.375,3.382-10.511,7.154-15.266,11.213l3.024,3.543
			C1431.324,223.924,1436.278,220.285,1441.463,217.023z"/>
		<path fill="#6C63FF" d="M1413.433,234.113c-4.294,4.591-8.289,9.561-11.875,14.77l3.838,2.64
			c3.454-5.018,7.302-9.805,11.439-14.227L1413.433,234.113z"/>
		<path fill="#6C63FF" d="M1366.958,535.707l4.378,1.591c2.097-5.772,4.02-11.798,5.716-17.91l-4.489-1.244
			C1370.9,524.139,1369.014,530.049,1366.958,535.707z"/>
		<path fill="#6C63FF" d="M1468.854,198.911c-6.031,2.062-11.91,4.499-17.473,7.243l2.061,4.178
			c5.384-2.656,11.077-5.016,16.919-7.014L1468.854,198.911z"/>
		<path fill="#6C63FF" d="M1375.883,340.721c0,0.776,0.004,1.555,0.012,2.338l4.658-0.047c-0.008-0.767-0.012-1.53-0.012-2.291
			c0-5.464,0.207-10.884,0.615-16.109l-4.645-0.362C1376.094,329.595,1375.883,335.137,1375.883,340.721z"/>
		<path fill="#6C63FF" d="M1533.758,194.826l0.214-4.653c-6.286-0.29-12.653-0.276-18.853,0.043l0.239,4.652
			C1521.409,194.557,1527.623,194.544,1533.758,194.826z"/>
		<path fill="#6C63FF" d="M1501.024,191.484c-6.305,0.818-12.551,1.979-18.563,3.449l1.107,4.525
			c5.845-1.43,11.92-2.559,18.055-3.354L1501.024,191.484z"/>
	</g>
	<g>
		<path fill="#FF593F" d="M1244.899,240.699c0-16.776-13.649-30.426-30.426-30.426s-30.426,13.649-30.426,30.426
			c0,16.777,13.649,30.427,30.426,30.427S1244.899,257.477,1244.899,240.699z M1188.705,240.699
			c0-14.208,11.56-25.768,25.768-25.768c14.208,0,25.768,11.56,25.768,25.768c0,14.209-11.559,25.768-25.768,25.768
			C1200.265,266.467,1188.705,254.908,1188.705,240.699z"/>
	</g>
	<g>
		<path fill="#FF593F" d="M1025.116,404.931c-5.228,3.411-10.339,7.146-15.192,11.101l2.942,3.611
			c4.727-3.852,9.705-7.489,14.795-10.811L1025.116,404.931z"/>
		<path fill="#FF593F" d="M1054.151,389.455c-5.972,2.575-11.505,5.267-16.917,8.227l2.236,4.087
			c5.283-2.89,10.689-5.519,16.525-8.035L1054.151,389.455z"/>
		<path fill="#FF593F" d="M1002.549,428.734l-3.21-3.375c-4.443,4.226-8.809,8.795-12.976,13.583l3.514,3.059
			C993.948,437.322,998.211,432.86,1002.549,428.734z"/>
		<path fill="#FF593F" d="M959.298,477.15c-3.047,5.226-6.057,10.757-8.945,16.44l4.152,2.111
			c2.849-5.604,5.815-11.058,8.817-16.207L959.298,477.15z"/>
		<path fill="#FF593F" d="M977.469,449.857c-3.688,4.826-7.32,9.982-10.8,15.326l3.904,2.541
			c3.416-5.246,6.981-10.306,10.598-15.039L977.469,449.857z"/>
		<path fill="#FF593F" d="M1085.038,378.354c-6.614,2.023-12.432,3.957-17.787,5.91l1.596,4.377
			c5.277-1.925,11.02-3.834,17.555-5.833L1085.038,378.354z"/>
		<path fill="#FF593F" d="M1172.585,340.162c-4.299,4.159-8.938,7.817-14.18,11.184l2.518,3.92
			c5.504-3.535,10.378-7.38,14.901-11.755L1172.585,340.162z"/>
		<path fill="#FF593F" d="M1196.806,302.291l4.337,1.7c2.164-5.522,4.137-11.526,5.862-17.849l-4.494-1.227
			C1200.83,291.078,1198.91,296.924,1196.806,302.291z"/>
		<path fill="#FF593F" d="M1211.466,266.375l-4.582-0.843c-0.369,2.013-0.761,4.017-1.164,5.958l4.561,0.946
			C1210.691,270.461,1211.089,268.421,1211.466,266.375z"/>
		<path fill="#FF593F" d="M1117.685,373.648l-1.352-4.458c-4.73,1.435-9.46,2.791-14.468,4.227l-3.387,0.973l1.287,4.477
			l3.384-0.971C1108.174,376.454,1112.92,375.092,1117.685,373.648z"/>
		<path fill="#FF593F" d="M1146.492,357.968c-5.035,2.427-10.587,4.698-16.973,6.944l1.546,4.395
			c6.55-2.305,12.258-4.641,17.45-7.143L1146.492,357.968z"/>
		<path fill="#FF593F" d="M1191.194,314.736c-2.875,5.555-6.115,10.708-9.63,15.316l3.704,2.826
			c3.679-4.823,7.065-10.207,10.063-16.002L1191.194,314.736z"/>
	</g>
	<g>
		<g>
			<path fill="#FE1108" d="M1178.26,1132.551c15.147,0,27.426-12.279,27.426-27.426v-660.02c0-15.146-12.279-27.426-27.426-27.426
				H690.987c-15.147,0-27.426,12.279-27.426,27.426v660.02c0,15.146,12.279,27.426,27.426,27.426H1178.26z"/>
			<linearGradient id="SVGID_44_" gradientUnits="userSpaceOnUse" x1="936.1577" y1="669.7324" x2="919.6882" y2="1677.1538">
				<stop  offset="0" style="stop-color:#FFFFFF"/>
				<stop  offset="0.4749" style="stop-color:#FAFAFA"/>
				<stop  offset="1" style="stop-color:#EDEDED"/>
			</linearGradient>
			<rect x="697.96" y="448.049" fill="url(#SVGID_44_)" width="473.325" height="631.1"/>
			<path fill="#B2B1B5" d="M1022.529,422.521c0-11.341-9.193-20.534-20.535-20.534h-21.563c-2.451,0-4.438-1.963-4.479-4.414
				c-0.178-10.71-3.779-37.473-34.916-41.17c-25.855-3.07-47.873,15.979-47.873,40.974v0.047c0.001,2.51-2.051,4.563-4.561,4.563
				h-21.351c-11.341,0-20.534,9.193-20.534,20.534v32.821h175.812V422.521z M954.574,401.986c-2.09,9.089-10.223,15.86-19.944,15.86
				c-9.722,0-17.867-6.771-19.957-15.86c-0.347-1.48-0.525-3.021-0.525-4.61c0-11.31,9.172-20.47,20.482-20.47
				c11.297,0,20.47,9.16,20.47,20.47C955.099,398.965,954.92,400.506,954.574,401.986z"/>
			<path fill="#DFDFF4" d="M1099.818,530.967c1.344,0,2.434-1.09,2.434-2.434v-23.924c0-1.344-1.09-2.434-2.434-2.434h-322.2
				c-1.344,0-2.433,1.09-2.433,2.434v23.924c0,1.344,1.089,2.434,2.433,2.434H1099.818z"/>
			<path fill="#DFDFF4" d="M1067.766,617.979c1.344,0,2.434-1.089,2.434-2.433v-15.224c0-1.344-1.089-2.433-2.434-2.433H844.414
				c-1.344,0-2.434,1.089-2.434,2.433v15.224c0,1.344,1.089,2.433,2.434,2.433H1067.766z"/>
			<rect x="841.98" y="636.79" fill="#EFEFEF" width="228.22" height="7.294"/>
			<rect x="841.98" y="656.368" fill="#EFEFEF" width="199.426" height="7.294"/>
			<path fill="#DFDFF4" d="M1067.766,774.604c1.344,0,2.434-1.09,2.434-2.434v-15.223c0-1.344-1.089-2.434-2.434-2.434H844.414
				c-1.344,0-2.434,1.09-2.434,2.434v15.223c0,1.344,1.089,2.434,2.434,2.434H1067.766z"/>
			<rect x="841.98" y="793.413" fill="#EFEFEF" width="228.22" height="7.294"/>
			<rect x="841.98" y="812.991" fill="#EFEFEF" width="199.426" height="7.294"/>
			<rect x="841.98" y="909.985" fill="#DFDFF4" width="228.22" height="20.09"/>
			<rect x="841.98" y="948.886" fill="#EFEFEF" width="228.22" height="7.293"/>
			<rect x="841.98" y="968.463" fill="#EFEFEF" width="199.426" height="7.294"/>
			<g>
				<g>
					<path fill="#C7C7E5" d="M813.884,604.828h-71.737v71.737h71.737V604.828z M810.157,672.839h-64.284v-64.284h64.284V672.839z"/>
				</g>
				<g>
					<path fill="#FF8376" d="M769.794,656.808l55.534-52.064c2.039-1.911,2.142-5.112,0.231-7.151l-6.722-7.169
						c-1.911-2.038-5.113-2.142-7.151-0.23l-42.25,39.61c-1.909,1.789-4.866,1.828-6.822,0.09l-17.436-15.498
						c-2.088-1.857-5.286-1.669-7.143,0.42l-6.53,7.346c-1.856,2.088-1.668,5.286,0.42,7.143l31.046,27.596
						C764.928,658.636,767.886,658.597,769.794,656.808z"/>
				</g>
				<g>
					<path fill="#C7C7E5" d="M813.884,755.756h-71.737v71.736h71.737V755.756z M810.157,823.766h-64.284v-64.283h64.284V823.766z"/>
				</g>
				<g>
					<path fill="#C7C7E5" d="M813.884,908.547h-71.737v71.736h71.737V908.547z M810.157,976.557h-64.284v-64.283h64.284V976.557z"/>
				</g>
				<g>
					<path fill="#FF8376" d="M769.794,807.735l55.534-52.064c2.039-1.911,2.142-5.112,0.231-7.151l-6.722-7.169
						c-1.911-2.038-5.113-2.142-7.151-0.23l-42.25,39.61c-1.909,1.789-4.866,1.828-6.822,0.09l-17.436-15.498
						c-2.088-1.857-5.286-1.669-7.143,0.42l-6.53,7.346c-1.856,2.088-1.668,5.285,0.42,7.143l31.046,27.595
						C764.928,809.563,767.886,809.524,769.794,807.735z"/>
				</g>
				<g>
					<path fill="#FF8376" d="M769.794,960.526l55.534-52.064c2.039-1.911,2.142-5.112,0.231-7.151l-6.722-7.169
						c-1.911-2.038-5.113-2.142-7.151-0.23l-42.25,39.61c-1.909,1.789-4.866,1.828-6.822,0.09l-17.436-15.498
						c-2.088-1.857-5.286-1.669-7.143,0.42l-6.53,7.346c-1.856,2.088-1.668,5.285,0.42,7.143l31.046,27.595
						C764.928,962.354,767.886,962.315,769.794,960.526z"/>
				</g>
			</g>
		</g>
		<path fill="#FFFFFF" d="M672.392,1066.189v14.5c0,16.754,13.582,30.336,30.335,30.336h440.08h14.233l-14.233-31.314v-13.521
			H672.392z"/>
		<path fill="#DFDFF4" d="M1157.041,1111.025c7.861,0,14.233-6.373,14.233-14.234V1079h-28.467v17.791
			C1142.807,1104.652,1149.18,1111.025,1157.041,1111.025L1157.041,1111.025z"/>
	</g>
	<path fill="#1FB89A" d="M1337.058,1134.006c0,0,3.904-8.483-12.262-7.352c-16.166,1.131-41.587-37.397-80.839-17.851
		s-48.49-1.944-68.504,5.974c-20.015,7.918-21.555,18.663-21.555,18.663l36.951,0.565H1337.058z"/>
	<g>
		<g>
			<polygon fill="#48486B" points="528.694,1137.709 531.549,1120.326 520.471,1108.634 524.126,1137.709 			"/>
			<polygon fill="#FCDBD2" points="537.126,1094.461 537.126,1079.906 518.478,1073.539 521.207,1094.461 			"/>
			<g>
				<path fill="#FCDBD2" d="M537.381,1094.461h-15.919l-0.715,2.652l7.337,19.946l15.438,5.426l25.831,0.306
					C549.177,1115.914,537.381,1094.461,537.381,1094.461z"/>
				<path fill="#57547F" d="M559.183,1120.908c-32.64-1.798-38.489-30.472-38.489-30.472l-0.285,18.289
					c5.992,9.814,21.427,23.995,30.329,27.048c3.909,1.341,6.02,2.054,6.02,2.054l19.602-0.37c0.685-0.029,1.255-0.6,1.255-1.312
					v-4.965c0-2.482-1.027-4.822-2.796-6.391c-0.143-0.172-0.285-0.314-0.428-0.399l-0.428-0.429
					c-0.2-0.171-0.428-0.313-0.656-0.485c-1.969-1.341-5.45-2.253-12.525-4.707c0,0,2.032,1.129,1.662,2.06
					C562.167,1121.519,560.381,1120.994,559.183,1120.908z"/>
			</g>
			<path fill="#48486B" d="M468.941,675.931l-17.505,87.518l55.425,161.747l9.077,154.614h23.01l9.001-152.039
				c0.267-4.509-0.013-9.034-0.833-13.476L521.098,773.39c-4.681-25.35-14.728-49.405-29.467-70.555l0,0L468.941,675.931z"/>
			<polygon fill="#48486B" points="264.296,831.05 280.183,828.396 254.028,815.182 251.476,818.969 			"/>
			<polygon fill="#FCDBD2" points="294.701,858.261 310.401,846.354 291.526,836.927 282.63,850.128 			"/>
			<g>
				<path fill="#FCDBD2" d="M255.815,839.772l-14.688,21.251c16.978-12.889,41.36-10.684,41.36-10.684l8.895-13.201l-1.8-2.075
					l-20.642-5.062L255.815,839.772z"/>
				<path fill="#57547F" d="M295.15,838.749l-15.008-10.456c-11.487-0.516-31.873,4.362-39.378,10.038
					c-3.296,2.493-5.067,3.845-5.067,3.845l-10.646,16.463c-0.359,0.584-0.205,1.377,0.387,1.775l4.117,2.773
					c2.059,1.387,4.573,1.843,6.862,1.252c0.222-0.022,0.42-0.061,0.57-0.131l0.594-0.116c0.254-0.07,0.5-0.18,0.769-0.272
					c2.212-0.884,4.914-3.261,10.903-7.758c0,0-2.072,1.055-2.636,0.228c-0.419-0.614,1.014-1.802,1.754-2.748
					C268.102,827.577,295.15,838.749,295.15,838.749z"/>
			</g>
			<path fill="#57547F" d="M421.321,943.084c4.353,2.876,9.636,3.993,14.781,3.123c8.918-1.507,15.808-8.658,16.982-17.627
				l2.563-19.592l-153.59-71.455l-10.897,19.531L421.321,943.084z"/>
			<path fill="#57547F" d="M405.996,798.11l6.402,112.452l43.25-0.926l15.929-214.118l-46.074,7.317l0,0
				C410.844,732.363,404.122,765.197,405.996,798.11z"/>
			<path fill="#774343" d="M489.09,519.068l-3.344-28.278l-58.348,20.792l17.283,31.162c1.419-1.184,3.192-2.448,5.205-3.755
				l-2.219-6.901l4.374,5.548C466.218,528.939,489.09,519.068,489.09,519.068z"/>
			<path fill="#EFAA9E" d="M436.893,506.276l12.287,37.611c1.916,5.863,8.222,9.063,14.085,7.147
				c5.864-1.915,9.064-8.221,7.148-14.084l-6.732-20.609L436.893,506.276z"/>
			<rect x="425.502" y="695.699" fill="#783D8A" width="66.125" height="7.287"/>
			<path fill="#8A6DCC" d="M402.344,584.436l-19.305,76.262l23.987,4.861l28.524-58.669l-20.893-39.848
				C408.537,571.111,404.148,577.311,402.344,584.436z"/>
			<path fill="#715AB7" d="M402.025,657.075l14.663-23.54l2.846-20.078c0,0-12.974,33.98-31.196,44.867L402.025,657.075z"/>
			<path fill="#FCC0AA" d="M421.446,481.338c-14.146,8.582,9.672,30.233,14.825,35.226c5.154,4.992,25.371,19.629,40.984,7.851
				c15.613-11.778,4.773-47.646,4.773-47.646s-3.047-5.383-7.428-11.093C470.219,459.966,435.592,472.756,421.446,481.338z"/>
			<path fill="#925454" d="M484.472,477.408c-15.754-41.044-44.883-29.394-53.127-25.475c-4.108,1.954-18.988,11.054-18.289,28.137
				c0.699,17.082,14.296,31.489,14.296,31.489l-2.997-6.031l9.037-1.897l6.112,7.99l-3.48-16.062
				c7.722-7.204,4.342-17.823,4.342-17.823C465.522,487.358,484.472,477.408,484.472,477.408z"/>
			<path fill="#925454" d="M441.749,544.006l7.361-0.815c-6.568-6.339-26.438-41.862-26.438-41.862l-9.643-18.726
				C415.022,501.774,441.749,544.006,441.749,544.006z"/>
			<path fill="#FCC0AA" d="M424.326,503.864c-0.941,5.187,11.239,15.743,14.597,13.454l-5.553-13.92
				C431.031,502.008,425.268,498.678,424.326,503.864z"/>
			<path fill="#925454" d="M494.833,520.659c0,0-0.912-23.323-11.834-46.565c-7.583-16.135-19.353-6.551-19.353-6.551l14.435,9.708
				c0,0,13.324,36.036,10.535,49.534L494.833,520.659z"/>
			<path fill="#FCC0AA" d="M544.137,577.068l-5.834-0.972l-1.621,22.365l7.481,1.247c5.189,0.865,10.514-0.276,14.893-3.193l0,0
				c5.031-3.351,8.348-8.73,9.083-14.73l10.436-85.299l-12.735-6.022L544.137,577.068z"/>
			<path fill="#715AB7" d="M545.107,571.909c-0.487,2.185-2.33,3.804-4.559,4.008l-3.867,11.653l2.917,12.836l14.619,0.154
				c4.899,0.052,9.564-2.095,12.712-5.85l0,0c2.059-2.457,3.352-5.464,3.717-8.648l9.758-85.136l-19.073-1.749L545.107,571.909z"/>
			<path fill="#FCC0AA" d="M588.328,476.396c0.391-1.391-0.076-2.883-1.19-3.803l-7.627-6.297c-1.125-0.873-1.83-2.181-1.942-3.6
				c-0.097-1.225-0.935-2.265-2.11-2.621l-0.721-0.218c-1.378-0.417-2.858,0.21-3.518,1.49l-3.69,7.171l-2.636,0.259
				c-1.797,0.177-3.289,1.467-3.723,3.22l-1.387,5.6c-0.211,0.854-0.154,1.75,0.165,2.569l3.548,9.136l3.257,5.956l11.88,1.202
				l7.411-11.943L588.328,476.396z"/>
			<polygon fill="#715AB7" points="539.599,600.406 541.869,576.42 476.369,551.427 490.33,598.462 			"/>
			<path fill="#8A6DCC" d="M481.254,558.917c-3.528-4.44-10.21-20.259-10.21-20.259l-3.162,8.355l-20.699-5.694l-33.836,26.835
				L424.206,697l69.042,0.648l6.969-71.797c0,0,6.969-9.562,6.645-27.714S488.54,568.085,481.254,558.917z"/>
			<path fill="#715AB7" d="M423.498,688.603c0,0,1.756-27.088,21.382-46.794h-6.248l-18.287,18.778L423.498,688.603z"/>
			<path fill="#715AB7" d="M413.347,641.809c0,0,34.856-30.188,29.031-41.166c-22.844,30.562-22.032,0-22.032,0L413.347,641.809z"/>
			<path fill="#715AB7" d="M420.347,646.398c7.84,3.871,39.264-4.326,39.264-4.326s-24.061,5.365-8.812-23.919
				C450.8,618.153,420.125,646.289,420.347,646.398z"/>
			<path fill="#FCC0AA" d="M386.605,661.021l0.333,14.465c0.173,7.533,6.512,13.449,14.04,13.102l0,0
				c4.576-0.211,8.729-2.741,11.014-6.711l43.969-76.35l-9.376-10.514l-41.827,55.959L386.605,661.021z"/>
			<path fill="#FCC0AA" d="M467.295,570.787l-0.578-0.482c-1.106-0.922-2.714-0.922-3.82,0l-6.196,5.164l-2.528-0.791
				c-1.724-0.538-3.601,0.067-4.684,1.513l-3.461,4.614c-0.527,0.703-0.825,1.552-0.851,2.43l-0.296,9.797l0.675,6.754l10.47,5.742
				l11.483-8.105l5.269-6.587c0.903-1.129,1.055-2.685,0.388-3.966l-4.567-8.774c-0.694-1.243-0.833-2.722-0.383-4.072
				C468.604,572.857,468.239,571.573,467.295,570.787z"/>
			<polygon fill="#F99795" points="404.757,650.973 386.605,661.021 386.768,670.201 			"/>
		</g>
		<path fill="#8A6DCC" d="M391.641,656.846l-8.602,3.852l-1.253,9.008c-0.743,5.338,1.061,10.715,4.871,14.525l0.167,0.168
			c3.59,3.59,8.585,5.41,13.644,4.971c5.539-0.481,10.502-3.611,13.324-8.4l42.168-71.576l-14.07-12.694l-29.019,42.413
			C407.565,646.868,400.218,653.005,391.641,656.846z"/>
		<linearGradient id="SVGID_45_" gradientUnits="userSpaceOnUse" x1="444.9658" y1="759.6875" x2="440.2757" y2="700.5927">
			<stop  offset="0" style="stop-color:#F8F3ED"/>
			<stop  offset="1" style="stop-color:#ECD2BA"/>
		</linearGradient>
		<path fill="url(#SVGID_45_)" d="M467.8,746.276l9.579-19.397l-64.033-2.579l-5.146,13.366
			C408.2,737.666,447.668,752.541,467.8,746.276z"/>
		<linearGradient id="SVGID_46_" gradientUnits="userSpaceOnUse" x1="491.6128" y1="755.9854" x2="486.9227" y2="696.8907">
			<stop  offset="0" style="stop-color:#F8F3ED"/>
			<stop  offset="1" style="stop-color:#ECD2BA"/>
		</linearGradient>
		<path fill="url(#SVGID_46_)" d="M476.441,745.64c0,0,26.968,1.153,36.114-7.278l-7.504-15.469l-37.755,8.188L476.441,745.64z"/>
		<path fill="#8A6DCC" d="M424.206,697l-12.644,29.176c0,0,66.079,15.946,97.557-1.407l-15.871-27.12l-23.841-5.711L424.206,697z"/>
		<linearGradient id="SVGID_47_" gradientUnits="userSpaceOnUse" x1="461.3389" y1="536.5674" x2="468.9836" y2="583.6115">
			<stop  offset="0" style="stop-color:#F8F3ED"/>
			<stop  offset="1" style="stop-color:#ECD2BA"/>
		</linearGradient>
		<path fill="url(#SVGID_47_)" d="M467.061,545.842l-20.542-4.611c0,0,22.366,37.178,33.312,32.205
			c5.558-2.526-2.14-21.845-2.14-21.845l-6.648-12.933L467.061,545.842z"/>
		<linearGradient id="SVGID_48_" gradientUnits="userSpaceOnUse" x1="460.5645" y1="570.6123" x2="462.3155" y2="583.6201">
			<stop  offset="0" style="stop-color:#F8F3ED"/>
			<stop  offset="1" style="stop-color:#ECD2BA"/>
		</linearGradient>
		<polygon fill="url(#SVGID_48_)" points="460.109,562.843 469.245,560.146 467.061,545.842 446.52,541.23 		"/>
		<linearGradient id="SVGID_49_" gradientUnits="userSpaceOnUse" x1="475.0562" y1="566.7061" x2="476.6977" y2="578.9005">
			<stop  offset="0" style="stop-color:#F8F3ED"/>
			<stop  offset="1" style="stop-color:#ECD2BA"/>
		</linearGradient>
		<polygon fill="url(#SVGID_49_)" points="473.979,556.746 478.239,551.821 470.969,537.946 467.061,545.842 		"/>
	</g>
	<g>
		<g>
			<polygon fill="#FCC0AA" points="1271.876,1046.117 1253.301,1053.877 1255.801,1071.107 1272.261,1069.677 			"/>
			<polygon fill="#FCC0AA" points="1476.224,1080.287 1456.641,1075.625 1460.06,1098.938 1476.535,1097.695 			"/>
			<g>
				<polygon fill="#383838" points="1431.237,765.203 1406.691,753.154 1386.478,739.365 1344.452,743.4 1256.688,901.602 
					1249.794,1059.463 1272.327,1059.463 1293.13,908.764 				"/>
				<path fill="#383838" d="M1410.823,928.597l42.612,155.56h23.533l-22.774-155.561l22.345-232.212v-0.276
					c0-3.952-1.287-7.752-3.646-10.908l-22.644-20.039h-38.547v109.269h2.88l-7.939,1.625L1410.823,928.597z"/>
				<g>
					<polygon fill="#D84178" points="1419.576,651.283 1419.013,665.152 1441.472,665.152 					"/>
				</g>
				<g>
					<polygon fill="#D84178" points="1384.232,665.152 1406.691,665.152 1406.128,651.283 					"/>
				</g>
			</g>
			<path fill="#383838" d="M1241.229,1078.844c-13.749,4.565-29.773,8.344-26.268,29.803l49.131-8.027l1.336-6.016l3.182,5.277
				l10.562-1.725l-5.72-35.014l-18.636,3.045C1254.816,1066.188,1254.978,1074.278,1241.229,1078.844z"/>
			<path fill="#383838" d="M1463.544,1122.437l2.289,5.722h10.702v-35.477h-18.883c0,0-1.145,8.012-15.45,10.3
				c-14.305,2.289-30.729,3.433-30.729,25.177h49.782L1463.544,1122.437z"/>
			<rect x="1369.38" y="690.479" fill="#844069" width="25.801" height="4.352"/>
			<rect x="1435.591" y="690.479" fill="#844069" width="25.801" height="4.352"/>
			<g>
				<path fill="#AACDE2" d="M1281.009,546.115c0.999,0.074,1.655-0.699,1.464-1.725c-0.191-1.023-1.157-1.917-2.156-1.991
					c-0.997-0.073-1.653,0.7-1.462,1.724C1279.046,545.148,1280.013,546.042,1281.009,546.115z"/>
			</g>
			<polygon fill="#484949" points="1343.568,556.267 1310.41,525.078 1298.715,541.774 1331.093,587.456 			"/>
			<g>
				
					<rect x="1091.994" y="471.743" transform="matrix(0.9627 -0.2707 0.2707 0.9627 -80.335 405.6542)" fill="#F7D472" width="676.902" height="44.642"/>
				
					<rect x="1095.015" y="493.648" transform="matrix(0.9627 -0.2707 0.2707 0.9627 -83.1305 406.871)" fill="#EFBF6A" width="676.902" height="22.322"/>
				
					<rect x="1756.037" y="378.505" transform="matrix(0.9627 -0.2706 0.2706 0.9627 -42.7247 491.7717)" fill="#ECE0D4" width="11.996" height="44.642"/>
				<path fill="#FC8175" d="M1794.576,407.812l-8.41-29.909c-1.014-3.608-4.762-5.711-8.37-4.696l-17.907,5.036l12.084,42.975
					l17.907-5.035C1793.488,415.168,1795.591,411.42,1794.576,407.812z"/>
				<polygon fill="#F4F4F4" points="1032.403,605.989 1110.672,607.168 1098.588,564.192 				"/>
				<polygon fill="#383838" points="1032.403,605.989 1049.796,606.251 1047.111,596.701 				"/>
			</g>
			<path fill="#FCC0AA" d="M1436.422,506.116v-26.751l-24.725,2.753v23.998c0,6.827,5.535,12.362,12.363,12.362
				C1430.887,518.479,1436.422,512.943,1436.422,506.116z"/>
			<path fill="#383838" d="M1395.332,458.405c1.747,27.21,16.056,35.238,16.056,35.238h24.605
				c8.02-6.772,19.963-21.359,22.629-39.438c1.641-9.192,2.466-21.324-11.323-30.915s-38.915-9.101-49.976-0.735l2.451,9.836
				c0,0,3.8,1.594,9.499,3.86C1401.798,438.733,1394.474,444.678,1395.332,458.405z"/>
			<path fill="#FCC0AA" d="M1411.402,493.653c0.93-0.298-14.829-47.081-14.829-47.081l-10.095,4.541
				C1390.418,478.199,1401.146,496.932,1411.402,493.653z"/>
			<path fill="#383838" d="M1426.859,436.34l-29.548-13.789c0,0-15.266,9.357-13.05,28.809c0,0,20.683,0,21.176-0.738
				C1409.115,445.105,1426.859,436.34,1426.859,436.34z"/>
			<path fill="#FCC0AA" d="M1408.064,476.146c3.119-2.134,2.791-19.697,0.164-20.847c-2.626-1.149-5.91,0.492-5.91,9.356
				C1402.319,464.656,1404.945,478.281,1408.064,476.146z"/>
			<path fill="#ECE0D4" d="M1230.497,522.254l-5.212,5.992c-1.294,4.553,1.879,12.847,3.875,17.139
				c2.779,5.975,15.025,14.426,24.11,23.738c0,0,6.458-4.556,5.223-14.984s-7.233-17.955-7.233-17.955s-3.69-18.184-7.394-16.706
				c-3.704,1.478,0.016,13.33,0.016,13.33l-5.33-9.692C1236.897,520.105,1232.751,519.662,1230.497,522.254z"/>
			<path fill="#545556" d="M1252.38,568.418l64.542,48.736c12.182,9.197,29.277,8.022,40.085-2.756l42.315-42.197l-35.258-54.605
				c-6.753,2.456-12.149,7.658-14.849,14.317l-19.344,47.701l-72.644-33.45c0,0-9.109,1.249-7.4,17.683
				C1250.015,565.652,1250.931,567.324,1252.38,568.418z"/>
			<polygon fill="#E5E5E5" points="1437.082,500.365 1406.31,500.365 1406.31,507.514 1437.082,504.574 			"/>
			<path fill="#545556" d="M1486.838,743.4l-8.817-72.381l-1.441-11.857l-0.031-0.184l-0.03-0.062l3.31-44.554l12.441-64.378
				c0.459-17.19-10.725-32.511-27.211-37.291l-27.976-8.12l-25.28-0.613l-47.156,14.064l0.551,48.506l0.368,31.408l4.075,27.271
				L1344.452,743.4C1344.452,743.4,1441.472,784.11,1486.838,743.4z"/>
			<polygon fill="#545556" points="1365.197,566.531 1361.121,568.247 1365.565,597.939 			"/>
		</g>
	</g>
</g>
</svg>
